<svg width="27" height="27" viewBox="0 0 27 27" fill="none" xmlns="http://www.w3.org/2000/svg">
<g clip-path="url(#clip0_164_851)">
<path d="M26.3576 5.50341C25.4267 5.9159 24.4267 6.1946 23.3755 6.32057C24.4602 5.67152 25.2717 4.64998 25.6586 3.44658C24.6395 4.05191 23.5241 4.478 22.361 4.70632C21.5788 3.87117 20.5428 3.31762 19.4138 3.13161C18.2847 2.9456 17.1259 3.13754 16.1172 3.67762C15.1084 4.21771 14.3062 5.07573 13.835 6.11846C13.3639 7.1612 13.2502 8.33031 13.5116 9.44429C11.4466 9.34061 9.42645 8.80388 7.58232 7.86895C5.73818 6.93401 4.11124 5.62176 2.80708 4.01736C2.36115 4.78659 2.10475 5.67844 2.10475 6.62826C2.10425 7.48332 2.31482 8.32529 2.71776 9.07945C3.12071 9.83361 3.70357 10.4767 4.41465 10.9515C3.58999 10.9253 2.78353 10.7025 2.06238 10.3016V10.3685C2.0623 11.5677 2.47713 12.7301 3.23649 13.6583C3.99585 14.5865 5.05296 15.2234 6.22846 15.461C5.46345 15.668 4.6614 15.6985 3.88288 15.5501C4.21454 16.582 4.86057 17.4844 5.73054 18.1309C6.60051 18.7773 7.65087 19.1356 8.73457 19.1555C6.89493 20.5996 4.62299 21.383 2.28423 21.3795C1.86995 21.3796 1.45601 21.3554 1.04456 21.3071C3.41853 22.8334 6.18201 23.6435 9.00435 23.6404C18.5583 23.6404 23.7813 15.7274 23.7813 8.86459C23.7813 8.64162 23.7757 8.41643 23.7656 8.19347C24.7816 7.45877 25.6585 6.549 26.3554 5.50676L26.3576 5.50341Z" fill="#FBFBFB"/>
</g>
<defs>
<clipPath id="clip0_164_851">
<rect width="26.7556" height="26.7556" fill="white"/>
</clipPath>
</defs>
</svg>
