<svg width="25" height="25" viewBox="0 0 25 25" fill="none" xmlns="http://www.w3.org/2000/svg">
<path fill-rule="evenodd" clip-rule="evenodd" d="M7.20729 0.0735779C8.51497 0.0133778 8.93192 0 12.263 0C15.5941 0 16.011 0.0144926 17.3176 0.0735779C18.6241 0.132663 19.516 0.341134 20.2964 0.64325C21.1135 0.952054 21.8549 1.43477 22.468 2.05907C23.0923 2.6711 23.5739 3.41134 23.8816 4.22962C24.1848 5.00999 24.3922 5.90184 24.4524 7.20618C24.5126 8.51609 24.526 8.93303 24.526 12.263C24.526 15.5941 24.5115 16.011 24.4524 17.3187C24.3933 18.623 24.1848 19.5149 23.8816 20.2952C23.5739 21.1136 23.0915 21.8551 22.468 22.468C21.8549 23.0923 21.1135 23.5739 20.2964 23.8816C19.516 24.1848 18.6241 24.3922 17.3198 24.4524C16.011 24.5126 15.5941 24.526 12.263 24.526C8.93192 24.526 8.51497 24.5115 7.20729 24.4524C5.90296 24.3933 5.0111 24.1848 4.23073 23.8816C3.41237 23.5739 2.6709 23.0915 2.05795 22.468C1.43408 21.8556 0.95129 21.1145 0.64325 20.2964C0.341134 19.516 0.133778 18.6241 0.0735779 17.3198C0.0133778 16.0099 0 15.5929 0 12.263C0 8.93192 0.0144926 8.51497 0.0735779 7.20841C0.132663 5.90184 0.341134 5.00999 0.64325 4.22962C0.951745 3.41143 1.4349 2.67034 2.05907 2.05795C2.67115 1.43421 3.41187 0.951433 4.22962 0.64325C5.00999 0.341134 5.90184 0.133778 7.20618 0.0735779H7.20729ZM17.2184 2.28092C15.9252 2.22183 15.5372 2.20957 12.263 2.20957C8.98877 2.20957 8.60081 2.22183 7.30763 2.28092C6.11143 2.33554 5.4626 2.53509 5.03006 2.70343C4.45815 2.9264 4.04902 3.19061 3.61981 3.61981C3.21295 4.01563 2.89984 4.49749 2.70343 5.03006C2.53509 5.4626 2.33554 6.11143 2.28092 7.30763C2.22183 8.60081 2.20957 8.98877 2.20957 12.263C2.20957 15.5372 2.22183 15.9252 2.28092 17.2184C2.33554 18.4146 2.53509 19.0634 2.70343 19.4959C2.89964 20.0277 3.2129 20.5104 3.61981 20.9062C4.01557 21.3131 4.49829 21.6263 5.03006 21.8225C5.4626 21.9909 6.11143 22.1904 7.30763 22.2451C8.60081 22.3041 8.98766 22.3164 12.263 22.3164C15.5383 22.3164 15.9252 22.3041 17.2184 22.2451C18.4146 22.1904 19.0634 21.9909 19.4959 21.8225C20.0678 21.5996 20.477 21.3354 20.9062 20.9062C21.3131 20.5104 21.6263 20.0277 21.8225 19.4959C21.9909 19.0634 22.1904 18.4146 22.2451 17.2184C22.3041 15.9252 22.3164 15.5372 22.3164 12.263C22.3164 8.98877 22.3041 8.60081 22.2451 7.30763C22.1904 6.11143 21.9909 5.4626 21.8225 5.03006C21.5996 4.45815 21.3354 4.04902 20.9062 3.61981C20.5103 3.21298 20.0285 2.89987 19.4959 2.70343C19.0634 2.53509 18.4146 2.33554 17.2184 2.28092ZM10.6967 16.0433C11.5714 16.4075 12.5455 16.4566 13.4524 16.1824C14.3594 15.9081 15.143 15.3275 15.6694 14.5397C16.1959 13.7519 16.4325 12.8058 16.3388 11.8629C16.2452 10.92 15.8271 10.0389 15.1559 9.37004C14.7281 8.94248 14.2108 8.6151 13.6413 8.41146C13.0717 8.20782 12.4641 8.13299 11.8622 8.19236C11.2603 8.25173 10.679 8.44382 10.1602 8.75481C9.64145 9.06579 9.19807 9.48792 8.86202 9.99083C8.52597 10.4937 8.3056 11.0649 8.21678 11.6632C8.12796 12.2615 8.17289 12.872 8.34835 13.4508C8.52381 14.0297 8.82543 14.5624 9.23149 15.0107C9.63755 15.459 10.138 15.8117 10.6967 16.0433ZM7.80595 7.80595C8.39126 7.22064 9.08612 6.75635 9.85086 6.43959C10.6156 6.12282 11.4352 5.95978 12.263 5.95978C13.0907 5.95978 13.9104 6.12282 14.6751 6.43959C15.4399 6.75635 16.1347 7.22064 16.72 7.80595C17.3053 8.39126 17.7696 9.08612 18.0864 9.85086C18.4032 10.6156 18.5662 11.4352 18.5662 12.263C18.5662 13.0907 18.4032 13.9104 18.0864 14.6751C17.7696 15.4399 17.3053 16.1347 16.72 16.72C15.5379 17.9021 13.9347 18.5662 12.263 18.5662C10.5913 18.5662 8.98803 17.9021 7.80595 16.72C6.62387 15.5379 5.95978 13.9347 5.95978 12.263C5.95978 10.5913 6.62387 8.98803 7.80595 7.80595ZM19.9641 6.89849C20.1092 6.76167 20.2253 6.59713 20.3056 6.41463C20.3859 6.23213 20.4288 6.03536 20.4317 5.83599C20.4346 5.63662 20.3975 5.43869 20.3225 5.25392C20.2476 5.06915 20.1363 4.90131 19.9953 4.76031C19.8543 4.61932 19.6865 4.50805 19.5017 4.43309C19.3169 4.35813 19.119 4.321 18.9196 4.32391C18.7203 4.32682 18.5235 4.3697 18.341 4.45001C18.1585 4.53033 17.994 4.64644 17.8571 4.79148C17.591 5.07357 17.4454 5.44825 17.451 5.83599C17.4567 6.22373 17.6132 6.59401 17.8874 6.86821C18.1616 7.14242 18.5319 7.29896 18.9196 7.30462C19.3074 7.31027 19.6821 7.16458 19.9641 6.89849Z" fill="#FBFBFB"/>
</svg>
