<svg width="27" height="27" viewBox="0 0 27 27" fill="none" xmlns="http://www.w3.org/2000/svg">
<path d="M8.25656 2C8.50761 2 8.75408 2.06719 8.97041 2.19458C9.18673 2.32198 9.36503 2.50494 9.48678 2.72449L11.2073 5.82362C11.3182 6.02353 11.3787 6.24747 11.3836 6.47604C11.3885 6.70462 11.3377 6.93095 11.2354 7.13543L9.57822 10.4512C9.57822 10.4512 10.0586 12.9208 12.0689 14.9318C14.0799 16.9421 16.5411 17.4147 16.5411 17.4147L19.8561 15.7569C20.0607 15.6545 20.2872 15.6035 20.5159 15.6084C20.7446 15.6133 20.9686 15.6739 21.1686 15.785L24.2776 17.5139C24.4967 17.6359 24.6791 17.8142 24.8061 18.0304C24.9332 18.2465 25.0001 18.4927 25 18.7434V22.3117C25 24.1293 23.3119 25.4418 21.59 24.8608C18.0533 23.6672 12.5634 21.3952 9.08374 17.9156C5.60479 14.4359 3.33214 8.94666 2.13919 5.40932C1.5582 3.68813 2.87072 2 4.68827 2H8.25586H8.25656Z" stroke="white" stroke-width="2.4" stroke-linejoin="round"/>
</svg>
