<?xml version="1.0" encoding="utf-8"?>
<!-- Generator: Adobe Illustrator 26.3.1, SVG Export Plug-In . SVG Version: 6.00 Build 0)  -->
<svg version="1.1" id="icon-gast04" xmlns="http://www.w3.org/2000/svg" xmlns:xlink="http://www.w3.org/1999/xlink" x="0px"
	 y="0px" viewBox="0 0 103 103" style="enable-background:new 0 0 103 103;" xml:space="preserve">
<style type="text/css">
	.st0{fill:#FCFFFF;}
</style>
<path class="st0" d="M89.8,67.7v-48l-19.5-3.7v-5h-52v61.5L13.1,92h62.7l-4.7-18.4l0,0C71.2,73.6,89.9,67.7,89.8,67.7z M84.8,26
	l0.8,37.2l-15.2,3.9V23.4L84.8,26L84.8,26z M36.4,30.1v46.1H26.3l3-52.1l7.1-1.9V30.1z M41.2,73.6V22.3h7.1l2.2,51.3L41.2,73.6
	L41.2,73.6z M57.7,76.2l-3.4-54l7.1,3l3,51H57.7z"/>
</svg>
