<?xml version="1.0" encoding="utf-8"?>
<!-- Generator: Adobe Illustrator 26.3.1, SVG Export Plug-In . SVG Version: 6.00 Build 0)  -->
<svg version="1.1" id="icon-gast04" xmlns="http://www.w3.org/2000/svg" xmlns:xlink="http://www.w3.org/1999/xlink" x="0px"
	 y="0px" viewBox="0 0 103 103" style="enable-background:new 0 0 103 103;" xml:space="preserve">
<style type="text/css">
	.st0{fill:#FFFFFF;}
</style>
<path class="st0" d="M91.7,52.1H74.3l1.5-7.8H14.8l6.8,48.1l45.2-1.6l2.7-14h17.7C87.2,76.8,91.7,52.1,91.7,52.1z M79.7,70.9l-9-0.4
	l2.6-13.2h11.3C84.6,57.3,79.7,70.9,79.7,70.9z"/>
<polygon class="st0" points="32.8,38.4 35,37.4 32.8,29.1 37,20.3 31.4,9.9 26.9,12.3 32,19.8 26.9,31 "/>
<polygon class="st0" points="37,31 44.3,39.6 45.3,37.4 43.6,30.8 49.4,21.5 45.3,11.3 42.1,14 45.3,22.8 "/>
<polygon class="st0" points="56,39.6 57.2,29.3 61.6,20.6 54.3,11.3 56,22.5 51.4,31.5 "/>
</svg>
